# xmcd CD database file
#
# Track frame offsets:
#	150
#	8471
#	20842
#	30037
#	46960
#	54930
#	79050
#	86396
#	107091
#	120287
#	130182
#	143229
#	156800
#	163996
#	175579
#	182288
#	189672
#	195331
#	200276
#	205746
#	214367
#	222538
#	229283
#	236328
#	241237
#	248096
#	256716
#	265408
#	273456
#	279377
#	292174
#	297895
#
# Disc length: 4098 seconds
#
# Revision: 1
# Processed by: cddbd v1.5.2PL0 Copyright (c) Steve Scherf et al.
# Submitted via: CDValet v3.40 - Copyright (c) 1996 - 1998 Greg Leichner
#
DISCID=bd100020
DTITLE=Rory Block and Stefan Grossman - Country Blues Guitar
DYEAR=1900
DGENRE=
TTITLE0=Crow Jane
TTITLE1=I'm So Glad
TTITLE2=Pony Blues
TTITLE3=Walking Blues
TTITLE4=Devil Got My Woman
TTITLE5=Yonder Comes The Blues
TTITLE6=Guitar Blues
TTITLE7=Ragged And Dirty
TTITLE8=Patton Blues In G
TTITLE9=Stagolee
TTITLE10=Special Rider
TTITLE11=New Pony Blues
TTITLE12=Suffle For The Perls
TTITLE13=Canned Heat
TTITLE14=Old Country Rock
TTITLE15=Future Blues
TTITLE16=Turn Your Money Green
TTITLE17=God Moves On The Water
TTITLE18=Monday Morning Blues
TTITLE19=M and O Blues
TTITLE20=Whistlin' Blues
TTITLE21=Candyman
TTITLE22=Banty Rooster
TTITLE23=Save Up Your Money, John D. Rockefeller Put The Panic 
TTITLE23=On
TTITLE24=Canned Heat
TTITLE25=Vestapol
TTITLE26=Brownsville Blues
TTITLE27=Police Dog Blues
TTITLE28=You Got The Pocket Book, I Got The Key
TTITLE29=Mississippi Blues
TTITLE30=Kokomo Blues
TTITLE31=Belzona Blues
EXTD=
EXTT0=
EXTT1=
EXTT2=
EXTT3=
EXTT4=
EXTT5=
EXTT6=
EXTT7=
EXTT8=
EXTT9=
EXTT10=
EXTT11=
EXTT12=
EXTT13=
EXTT14=
EXTT15=
EXTT16=
EXTT17=
EXTT18=
EXTT19=
EXTT20=
EXTT21=
EXTT22=
EXTT23=
EXTT24=
EXTT25=
EXTT26=
EXTT27=
EXTT28=
EXTT29=
EXTT30=
EXTT31=
PLAYORDER=
